<svg xmlns="http://www.w3.org/2000/svg" width="24.781" height="12.75"><path data-name="Color Fill 9 copy" d="M.382 5.31a1.4 1.4 0 011.97 0L6.06 9.02a1.393 1.393 0 01-1.971 1.97L.382 7.28a1.391 1.391 0 010-1.97zm0 2.03a1.393 1.393 0 010-1.97L4.09 1.66a1.393 1.393 0 111.97 1.97L2.353 7.34a1.4 1.4 0 01-1.968 0zM15.805.1a1.173 1.173 0 01.609 1.54l-5.037 10.51a1.215 1.215 0 01-2.19-1.04L14.224.59A1.172 1.172 0 0115.808.1zm8.565 7.27a1.4 1.4 0 01-1.971 0l-3.707-3.71a1.393 1.393 0 011.97-1.97L24.37 5.4a1.393 1.393 0 01.003 1.97zm0-2.03a1.393 1.393 0 010 1.97l-3.707 3.71a1.393 1.393 0 11-1.971-1.97L22.4 5.34a1.4 1.4 0 011.969 0z" fill="#fff" fill-rule="evenodd"/></svg>