<svg xmlns="http://www.w3.org/2000/svg" width="31.125" height="39.47"><path d="M30.709 9.74l-5.68 9.84a3.253 3.253 0 01-4.433 1.19l-1.406-.82 1.623-2.81a1.617 1.617 0 002.217-.59l4.057-7.03a1.615 1.615 0 00-.594-2.21l-5.622-3.25a1.624 1.624 0 00-2.216.59l-4.058 7.03a1.626 1.626 0 00.594 2.22l-1.622 2.81-1.406-.81a3.253 3.253 0 01-1.188-4.44l5.68-9.83A3.237 3.237 0 0121.089.44l8.432 4.87a3.241 3.241 0 011.188 4.43zm-19.2 17.02a1.615 1.615 0 01-.594-2.21l6.491-11.25a1.625 1.625 0 012.811 1.63l-6.491 11.24a1.617 1.617 0 01-2.215.59zm-1.188-4.43a1.626 1.626 0 00-2.217.59l-4.057 7.03a1.626 1.626 0 00.594 2.22l5.622 3.24a1.616 1.616 0 002.216-.59l4.058-7.03a1.615 1.615 0 00-.594-2.21l1.623-2.81 1.406.81a3.241 3.241 0 011.188 4.43l-5.68 9.84a3.254 3.254 0 01-4.434 1.19l-8.432-4.87a3.253 3.253 0 01-1.188-4.44l5.68-9.83a3.236 3.236 0 014.433-1.19l1.406.81z" fill="#fff" fill-rule="evenodd"/></svg>