<svg xmlns="http://www.w3.org/2000/svg" width="23.969" height="14"><path data-name="Color Fill 7 copy 3" d="M7.469 0h6v6h-3V3h-3V0zm.046 4.53a1.515 1.515 0 11-1.516 1.51 1.509 1.509 0 011.516-1.51zm-3 3a1.515 1.515 0 11-1.516 1.51 1.509 1.509 0 011.516-1.51zm-3 3a1.515 1.515 0 11-1.516 1.51 1.509 1.509 0 011.516-1.51zM16.5 13.99h-6v-6h3v3h3v3zm-.046-4.52a1.52 1.52 0 111.516-1.52 1.517 1.517 0 01-1.516 1.52zm3-3a1.52 1.52 0 111.516-1.52 1.517 1.517 0 01-1.516 1.52zm3-3a1.52 1.52 0 111.516-1.52 1.517 1.517 0 01-1.516 1.52z" fill="#fff" fill-rule="evenodd"/></svg>